<?xml version="1.0" encoding="utf-8"?>
<!-- Generator: Adobe Adobe Illustrator 24.2.0, SVG Export Plug-In . SVG Version: 6.00 Build 0)  -->
<svg version="1.1" xmlns="http://www.w3.org/2000/svg" xmlns:xlink="http://www.w3.org/1999/xlink" x="0px" y="0px" width="1920px"
	 height="1080px" viewBox="0 0 1920 1080" style="enable-background:new 0 0 1920 1080;" xml:space="preserve">
<style type="text/css">
	.st0{fill:none;}
	.st1{font-family:'Didot-Bold';}
	.st2{font-size:136.708px;}
	.st3{font-size:197.1692px;}
	.st4{font-size:334.3367px;}
	.st5{font-size:167.2418px;}
	.st6{display:none;}
	.st7{display:inline;}
</style>
<g id="Layer_1">
	<g>
		<rect x="1247.72" y="822.83" class="st0" width="568.78" height="132.15"/>
		<text transform="matrix(1 0 0 1 1247.7245 921.3984)" class="st1 st2">laurenne</text>
		<rect x="1160.5" y="915.18" class="st0" width="656" height="145.82"/>
		<text transform="matrix(1 0 0 1 1160.5029 1013.7436)" class="st1 st2">numenara</text>
		<rect x="1386.61" y="735.55" class="st0" width="429.89" height="132.15"/>
		<text transform="matrix(1 0 0 1 1386.608 834.1191)" class="st1 st2">asteria</text>
	</g>
	<path d="M1012.09,40.17c-6.94-2.1-13.2,2.45-19.29,5.14c-29.78,17.04-56.36,39.06-84.29,58.94c-0.97-3.95-1.93-7.88-2.89-11.86
		c-3.33-14.16-5.36-28.63-9.11-42.68c-0.26-11.42-3.7-20.72-16.61-15.81c-3.98,2.28-5.61,6.95-5.92,11.31
		c0.69,8.93,1.51,10.46,2.27,14.15c0.23,9.55-0.14,19.12-0.47,28.66c-0.22,13.15-0.66,26.28-1.27,39.4
		c-21.19,13.87-43.01,26.91-63.31,36.76c-10.5,1.3-20.96,3.96-31.27,8.36c-8.26,3.59-19.6,6.14-22.54,15.78
		c-2.58,11.85,7.11,23.15,24.82,18.25c11.66-1.83,27.44-7.89,44.94-16.38c14.51-0.24,28.66,2.53,42.41,7.65
		c-1.55,17.21-3.25,34.41-5.21,51.59c4-16.36,7.59-32.8,10.95-49.27c5.71,2.41,11.35,5.14,16.91,8.26
		c-23.98,43.14-47.44,86.72-64.6,132.84c-2.12,6.4-4.85,14.63-6.43,19.92c1.91-3.86,3.82-7.73,5.73-11.6
		c23.92-45.55,53.15-87.99,82.16-130.58c13.1,9.06,25.77,19.68,37.94,31.14c1.54,1.47,3.14,2.89,4.75,4.3
		c0.07-0.09,0.13-0.17,0.2-0.26c0.87,0.78,1.68,1.65,2.57,2.4c8.62,5.41,20.93-1.62,20.59-11.82c-0.76-6.48-3.69-9.88-6.57-12.16
		c-4.36-4.99-8.56-10.16-13.31-14.81c-8.76-9.46-15.83-21.37-21.94-34.77c13.05-19.7,25.74-39.61,37.5-60.09
		c15.81-24.07,22.03-34.94,43.85-54.89c0.33-0.21,0.56-0.37,1-0.64c4.63-2.6,7.21-7.64,7.38-12.86
		C1023.11,47.91,1018.39,42,1012.09,40.17z M880.31,174.06c0.93-5.11,1.87-10.22,2.74-15.35c3.58-2.25,7.13-4.53,10.65-6.83
		c3.21,11.38,6.91,22.58,11.34,33.51c-0.05,0.09-0.1,0.18-0.15,0.26C896.92,181.25,888.72,177.32,880.31,174.06z M916.81,136.12
		c5.24-3.71,10.33-7.41,15.13-11.03c3.34-2.33,6.64-4.72,9.93-7.13c-6.67,12.06-13.09,24.24-19.6,36.19
		C920.37,148.29,918.54,142.28,916.81,136.12z"/>
	<g>
		<rect x="1091.17" y="60.12" class="st0" width="0" height="0"/>
		<rect x="68.48" y="124.7" class="st0" width="584.3" height="222.7"/>
		<text transform="matrix(1 0 0 1 68.4629 266.8682)" class="st1 st3">ST  R</text>
		<rect x="51.81" y="301.36" class="st0" width="584.3" height="222.7"/>
		<text transform="matrix(1 0 0 1 51.7979 443.5352)" class="st1 st3">GIRL</text>
		<rect x="561.04" y="208.93" class="st0" width="361.76" height="329.75"/>
		<text transform="matrix(1 0 0 1 561.0566 449.9971)" class="st1 st4">&amp;</text>
		<rect x="68.48" y="256.97" class="st0" width="830.05" height="341.64"/>
		<text transform="matrix(1 0 0 1 68.4629 377.5547)"><tspan x="0" y="0" class="st1 st5">  </tspan><tspan x="0" y="200.69" class="st1 st5">associates</tspan></text>
		<g class="st6">
			<path class="st7" d="M794.61,261.42c0.02-2.4,0.41-4.72,0.7-7.06c-0.04,0.2-0.12,0.39-0.16,0.59
				C794.78,257.09,794.66,259.26,794.61,261.42z"/>
			<path class="st7" d="M878.6,178.08c-5.28-12.1-12.07-23.32-19.42-34.19c9.91-16.31,20.87-33.14,33.63-50.88
				c6.32-12.47,25.36-22.27,18.5-37.88c-2.46-5.17-6.13-2.02-9.02,0.85c-0.16,0.13,0.68-0.56,1.01-0.84
				c-6.41,4.8-11.71,10.73-16.72,16.9c-11.25,13.61-22.23,24.69-37.58,33.06c-4.12,2.56-8.34,4.9-12.62,7.1
				c-0.76-1.04-1.54-2.08-2.3-3.12c-13.13-19.18-25.81-49.1-38.76-71.93c-1.28-2.61-0.49-0.19,0.16,1.69
				c-0.06,0.04-0.12,0.12-0.18,0.17c-0.62-1.84-1.25-3.72-1.86-5.4c-6.56-4.96-7.74,9.16-5.81,12.94c0.01,0.02,0.02,0.04,0.03,0.06
				c0.12,0.48,0.2,0.96,0.34,1.43c7.35,21.85,14.56,44.47,17.9,66.46c0.16,3.61,0.13,7.27,0.11,10.93
				c-23.04,8.78-46.71,16.15-68.27,28.09c-6.34,4.16-6.67,13.83-3.16,19.9c4.07,4.63,12.87,3.42,18.72,4.52
				c16.2,1.4,32.58,0.24,48.84,0.63c-2.07,19.06-4.18,38.23-4.18,56.93c1.07-19.11,4.23-38.01,7.27-56.91
				c6.09,0.23,12.17,0.71,18.2,1.71c1.13,0.2,2.31,0.58,3.46,0.86c-9.88,24.41-28.33,47.24-31.57,73.2
				c4.65-21.69,20.61-38.63,30.29-58.18c2.13-4.63,4.58-9.03,7.18-13.34c14.83,5.02,30.69,15.19,42.6,26.22
				c2.62,4.33,5.68,8.34,9.71,11.67c2.76,1.56,5.55-1.01,6.62-3.44c5.28-12.92-0.32-23.43-9.6-32.11
				C880.97,182.99,879.8,180.59,878.6,178.08z M861.37,120.76c-2.83,4.75-5.6,9.5-8.39,14.28c-1.44-2.02-2.86-4.06-4.33-6.06
				C853.02,126.4,857.29,123.68,861.37,120.76z M808.79,91.47c2.59,5.55,5.1,11.14,7.81,16.63c1.81,3.7,3.96,7.11,6,10.62
				c-3.61,1.57-7.26,3.03-10.92,4.48c0.12-3.01,0.3-6.02,0.3-9.04C811.32,106.91,810.19,99.22,808.79,91.47z M808.87,154.2
				c0.3-2.26,0.61-4.51,0.88-6.77c7.89-2.96,16.08-6.49,24.28-10.55c3.25,4.75,6.42,9.49,9.63,14.14c-1.62,2.82-3.16,5.52-4.76,8.32
				C829.16,156.03,819.12,154.54,808.87,154.2z"/>
		</g>
		<g class="st6">
			<path class="st7" d="M920.71,370.74c0-0.17,0-0.34,0-0.51C920.69,370.41,920.72,370.57,920.71,370.74z"/>
			<path class="st7" d="M921.05,373.62c-0.42-0.9-0.41-1.89-0.34-2.88c0.01,0.77,0,1.54,0.01,2.31
				C920.78,373.13,921.32,374.22,921.05,373.62z"/>
			<path class="st7" d="M1002.74,180.29c-18.29,19.87-42.17,35.21-67.46,49.14c-3.02-5.22-6.07-10.59-9.22-16.4
				c-0.54-1.24-1.09-2.9-1.65-4.69c-0.97-3.22-0.93-9.03-5.03-8.62c-2.76,0.95-3.19,4.75-3.28,7.35c0.78,5.39,2.19,10.56,3.97,15.62
				c0.8,4.64,1.38,9.31,1.82,13.99c-15.48,8.15-31.21,15.99-46.34,24.13c-7.95,4.4-18.55,8.64-19.27,19.21
				c-1.85,27.49,12.86,15.61,29.96,14.85c11.4-1.57,23.26-1.1,34.74,0.82c-0.8,9.01-1.73,17.99-2.62,26.92
				c1.51-8.82,3.05-17.72,4.45-26.67c1.52,0.28,2.99,0.67,4.49,1c-5.43,23.92-6.99,48.82-6.61,73.29c0.1-0.98,0.27-1.98,0.26-2.94
				c1.94-23.63,5-47.15,11.95-69.01c15.71,4.22,29.92,11.3,40.36,20.24c0.91,1.38,1.7,2.84,2.63,4.2
				c5.31,6.53,10.42-2.67,10.74-8.09c1.95-11.05-3.72-19.14-11.45-25.41c-8.27-11.09-15.53-21.23-22.33-31.45
				c0.98-1.36,1.8-2.79,2.84-4.12c6.75-8.67,14.87-16.12,23.11-23.43c8.35-6.56,16.42-13.54,23.78-21.54c3-1.84,4.43-4.04,5.01-6.44
				c0.99-1.16,2.16-2.18,3.09-3.39C1013.81,193.17,1011.73,173.62,1002.74,180.29z M926.52,266.93c0.1-1.15,0.17-2.29,0.26-3.44
				c3.54-1.94,7.09-3.86,10.6-5.85c0.61,1.08,1.21,2.15,1.81,3.23c-1.24,2.79-2.48,5.59-3.57,8.43
				C932.6,268.42,929.58,267.58,926.52,266.93z"/>
		</g>
		<path d="M401.28,185.38c0.14-0.29,0.28-0.57,0.41-0.86c0.96-1.87,1.91-3.71,2.86-5.57c8.48-6.64,16.6-13.74,23.85-21.84
			c6.2-6.36,10.51-15.77,8.5-24.73c-1.16-9.46-9.61-9.6-15.5-3.64c-7.9,6.93-13.41,15.8-18.05,25.16c-4.44,3.52-9,6.88-13.76,10.01
			c-1.72-3.27-3.52-6.61-5.09-9.76c-3.38-4.65-5.68-13.75-7.69-18.05c-0.78-2.56-1.67-5.09-4.29-5.94c-3.49,1.07-3.32,6.2-2.62,9.14
			c1.62,4.87,3.66,9.59,5.5,14.38c1.54,5.41,2.74,10.92,3.8,16.47c-9.78,5.68-19.94,10.89-30.71,15.32
			c-6.49,4.25-6.61,25.16,3.67,23.3c10.94-1.71,20.09-1.9,28.4,0.67c-5.53,14.48-10.49,29.15-13.17,44.43
			c-1.56,12.26-4.78,25.39-1.55,37.54c0.54,1.14,1.94,1.98,3.18,1.69c1.5-0.36,2.7-1.39,3.9-2.31c-1.23,0.73-2.5,1.49-3.95,1.63
			c-3.89-0.37-3.19-5.59-3.24-8.45c1.55-23.36,9.9-44.84,19.68-65.78c0.55,5.12,1.11,10.24,1.78,15.3
			c-0.27-5.81-0.49-11.67-0.72-17.52c0.51-1.08,1.03-2.17,1.55-3.25c2.64,1.48,5.23,3.23,7.78,5.49c5.29,4.67,14.5,14.39,20.2,20.65
			c5.45,8.28,10.39,11.63,12.78,1.28c2.47-9.13-3.37-16.52-9.16-22.95C414.03,207.62,407.68,196.71,401.28,185.38z"/>
		<path d="M904.62,433.5c-3.57-3.27-7.5-5.53-11.63-7.22c-2.74-3.3-5.35-6.7-7.72-10.28c0.96-1.8,1.96-3.59,3.02-5.34
			c6.67-4.67,13.11-9.57,18.56-15.13c6.1-4.77,10.29-23.96-1.99-21.5c-6.65,3.97-11.63,10.25-15.71,17.16
			c-4.36,3.02-9.03,6.04-13.68,8.86c-4.02-7.11-8-14.25-12.43-21.04c-0.34-1.03-1.76-1.4-2.26-0.27c-1.48,2.27-0.13,5.44,0.23,6.25
			c2.48,6.91,4.09,13.59,5.44,20.33c-1.3,0.73-2.61,1.47-3.82,2.13c-7.66,5.92-20.61,9.07-22.42,19.76
			c-2.36,17.3,9.63,13.05,21.51,12.52c2.89-0.23,5.82-0.34,8.75-0.35c-4.38,13.95-8.16,28.06-9.96,42.4
			c0.2-5.42,2.52-10.44,4.41-15.44c3.58-8.72,6.67-17.83,10.05-26.86c6.39,0.29,12.69,1.33,18.51,3.75c2.89,3.24,6.1,6.14,9.75,8.54
			c3.23,1.84,6.04,0.03,6.84-3.41C911.85,442.72,909.28,436.86,904.62,433.5z"/>
		<path d="M693.98,108.95c-2.42,1.3-4.57,3.07-6.81,4.68c-0.24,0.12-0.49,0.22-0.73,0.34c-6.21,2.9-12.66,5.81-18.99,8.94
			c-1.55-4.24-2.99-8.52-4.14-12.83c-3.39-1.37-2.72,4.85-3.22,6.86c-0.58,3.82-1.22,7.42-1.9,10.94
			c-5.85,3.34-11.48,6.96-16.34,11.41c-2.45,5.72-1.88,14.88,5.01,17c1.62,0.37,3.19,0.72,4.72,1.07
			c-4.54,9.59-9.37,18.95-15.47,27.73c9.18-9.43,14.59-17.09,20.27-26.55c9.57,2.54,17.25,6.11,23.03,16.32
			c0.59,0.91,0.78,1.16,1.62,2.66c0.02,0.03,0.05-0.01,0.07,0.01c2.97,4.97,6.29,6.59,7.91-4.91c-0.34-4.91-2.46-9.39-5.22-13.54
			c-1.7-3.55-3.66-7.68-5.1-10.64c-1.43-2.82-2.81-5.68-4.16-8.55c1.8-1.5,3.61-3,5.47-4.58c0.97-0.63,1.96-1.38,2.94-2.13
			c4.28-2.14,8.48-4.42,12.85-6.38C701.99,124.17,702.14,107.66,693.98,108.95z"/>
	</g>
</g>
<g id="Layer_2">
</g>
</svg>
